<?xml version="1.0" standalone="no"?>
<!DOCTYPE svg PUBLIC "-//W3C//DTD SVG 20010904//EN"
 "http://www.w3.org/TR/2001/REC-SVG-20010904/DTD/svg10.dtd">
<svg version="1.0" xmlns="http://www.w3.org/2000/svg"
 width="96.000000pt" height="96.000000pt" viewBox="0 0 96.000000 96.000000"
 preserveAspectRatio="xMidYMid meet">

<g transform="translate(0.000000,96.000000) scale(0.100000,-0.100000)"
fill="#000000" stroke="none">
<path d="M443 925 c-160 -49 -266 -191 -267 -355 -2 -329 382 -498 623 -274
40 36 67 73 87 116 26 56 29 73 28 158 -1 104 -15 148 -72 227 -83 112 -264
171 -399 128z m211 -169 c44 -18 79 -64 73 -96 -13 -67 -59 -227 -71 -246 -23
-34 -81 -57 -127 -49 -47 8 -116 57 -142 103 -23 40 -24 118 -2 165 49 104
176 162 269 123z"/>
<path d="M485 665 c-14 -13 -25 -36 -25 -50 0 -36 42 -75 80 -75 65 0 95 83
47 128 -31 29 -72 28 -102 -3z m48 -30 c1 -5 -6 -11 -15 -13 -11 -2 -18 3 -18
13 0 17 30 18 33 0z"/>
<path d="M175 273 c-127 -115 -145 -135 -145 -164 0 -39 40 -79 77 -79 29 0
40 10 168 148 l39 42 -44 45 c-24 25 -47 45 -50 45 -3 0 -23 -17 -45 -37z
m-45 -158 c0 -8 -7 -15 -15 -15 -8 0 -15 7 -15 15 0 8 7 15 15 15 8 0 15 -7
15 -15z"/>
</g>
</svg>
